<svg fill="#FFFFFF" xmlns="http://www.w3.org/2000/svg"  viewBox="0 0 50 50" width="50px" height="50px"><path d="M 4 6 C 3.448 6 3 6.448 3 7 L 3 30 C 3 30.552 3.448 31 4 31 L 7 31 C 7.552 31 8 30.552 8 30 L 8 21 C 8 20.448 8.448 20 9 20 L 11 20 C 11.552 20 12 19.552 12 19 L 12 16 C 12 15.448 11.552 15 11 15 L 9 15 C 8.448 15 8 14.552 8 14 L 8 13 C 8 12.448 8.448 12 9 12 L 12 12 C 12.552 12 13 11.552 13 11 L 13 7 C 13 6.448 12.552 6 12 6 L 4 6 z M 17.199219 6 C 16.703219 6 16.282937 6.3635156 16.210938 6.8535156 L 12.800781 29.853516 C 12.711781 30.457516 13.179063 31 13.789062 31 L 16.443359 31 C 16.919359 31 17.329828 30.663312 17.423828 30.195312 L 18.029297 27.173828 C 18.122297 26.705828 18.532766 26.369141 19.009766 26.369141 L 20.148438 26.369141 C 20.624437 26.369141 21.035906 26.706828 21.128906 27.173828 L 21.732422 30.195312 C 21.825422 30.663313 22.235891 31 22.712891 31 L 25.365234 31 C 25.975234 31 26.442516 30.457516 26.353516 29.853516 L 22.945312 6.8535156 C 22.872313 6.3635156 22.453031 6 21.957031 6 L 17.199219 6 z M 29 6 C 28.448 6 28 6.448 28 7 L 28 30 C 28 30.552 28.448 31 29 31 L 35 31 C 35.552 31 36 30.552 36 30 L 36 27 C 36 26.448 35.552 26 35 26 L 34 26 C 33.448 26 33 25.552 33 25 L 33 7 C 33 6.448 32.552 6 32 6 L 29 6 z M 39 6 C 38.448 6 38 6.448 38 7 L 38 30 C 38 30.552 38.448 31 39 31 L 46 31 C 46.552 31 47 30.552 47 30 L 47 27 C 47 26.448 46.552 26 46 26 L 44 26 C 43.448 26 43 25.552 43 25 L 43 7 C 43 6.448 42.552 6 42 6 L 39 6 z M 19.507812 15.001953 C 19.658998 14.998664 19.812687 15.003469 19.96875 15.019531 C 21.35575 15.161531 22.567406 16.182391 22.941406 17.525391 C 23.618406 19.943391 21.680547 22.236469 19.185547 21.980469 C 17.800547 21.838469 16.589891 20.819516 16.212891 19.478516 C 15.576328 17.210703 17.240029 15.051296 19.507812 15.001953 z M 21.066406 18.003906 C 20.622406 18.040906 20.291125 18.431953 20.328125 18.876953 L 20.388672 19.611328 C 20.425672 20.056328 20.815766 20.388563 21.259766 20.351562 C 21.703766 20.314563 22.033094 19.921562 21.996094 19.476562 L 21.9375 18.742188 C 21.9005 18.296188 21.510406 17.966906 21.066406 18.003906 z M 17.808594 18.273438 C 17.364594 18.310437 17.035266 18.701484 17.072266 19.146484 L 17.132812 19.880859 C 17.169812 20.325859 17.559906 20.658094 18.003906 20.621094 C 18.447906 20.584094 18.777234 20.191094 18.740234 19.746094 L 18.679688 19.013672 C 18.642688 18.568672 18.252594 18.237437 17.808594 18.273438 z M 9.1914062 33 C 5.5824063 33 3 35.772359 3 39.193359 C 3 43.481359 6.1264063 45.388672 9.1914062 45.388672 C 10.968406 45.388672 12.319141 44.949484 13.244141 44.021484 C 13.318141 43.947484 13.359375 43.842328 13.359375 43.736328 L 13.359375 38.613281 C 13.359375 38.408281 13.194234 38.240234 12.990234 38.240234 L 9.5625 38.240234 C 9.3575 38.240234 9.1914062 38.407281 9.1914062 38.613281 L 9.1914062 40.230469 C 9.1914062 40.443469 9.365125 40.617328 9.578125 40.611328 C 10.119125 40.596328 10.765625 40.623047 10.765625 40.623047 L 10.765625 42.185547 C 10.311625 42.470547 9.9784063 42.529297 9.1914062 42.529297 C 7.2654062 42.529297 6.1484375 40.622359 6.1484375 39.193359 C 6.1484375 36.101359 8.8361406 34.778859 11.744141 36.380859 C 11.958141 36.498859 12.226328 36.445187 12.361328 36.242188 L 13.234375 34.927734 C 13.366375 34.728734 13.333484 34.454641 13.146484 34.306641 C 12.093484 33.474641 10.834406 33 9.1914062 33 z M 15.59375 33.300781 C 15.33775 33.300781 15.130859 33.508625 15.130859 33.765625 L 15.130859 40.179688 C 15.129859 43.055687 17.452359 45.388672 20.318359 45.388672 C 23.183359 45.388672 25.507812 43.055687 25.507812 40.179688 L 25.507812 33.765625 C 25.507812 33.508625 25.300922 33.300781 25.044922 33.300781 L 22.634766 33.300781 C 22.378766 33.300781 22.171875 33.508625 22.171875 33.765625 L 22.171875 39.808594 C 22.171875 40.835594 21.341359 41.669922 20.318359 41.669922 C 19.295359 41.669922 18.466797 40.836594 18.466797 39.808594 L 18.466797 33.765625 C 18.466797 33.508625 18.259906 33.300781 18.003906 33.300781 L 15.59375 33.300781 z M 33.994141 33.300781 C 33.839141 33.300781 33.694422 33.379766 33.607422 33.509766 L 31.892578 36.091797 L 30.177734 33.509766 C 30.091734 33.380766 29.947969 33.302734 29.792969 33.302734 L 27.201172 33.302734 C 26.832172 33.302734 26.611406 33.714438 26.816406 34.023438 L 30.042969 38.880859 L 30.042969 44.457031 C 30.042969 44.970031 30.45775 45.388672 30.96875 45.388672 L 32.820312 45.388672 C 33.331313 45.388672 33.746094 44.970031 33.746094 44.457031 L 33.746094 38.878906 L 36.970703 34.023438 C 37.176703 33.715438 36.955937 33.300781 36.585938 33.300781 L 33.994141 33.300781 z M 41.84375 33.306641 C 40.51975 33.306641 39.454687 33.621188 38.679688 34.242188 C 37.880688 34.882188 37.476562 35.763281 37.476562 36.863281 C 37.476562 37.447281 37.599703 37.968016 37.845703 38.416016 C 38.080703 38.846016 38.400875 39.230594 38.796875 39.558594 C 39.183875 39.875594 39.737422 40.191438 40.482422 40.523438 C 41.208422 40.851438 41.686297 41.088516 41.904297 41.228516 C 42.097297 41.350516 42.240078 41.471844 42.330078 41.589844 C 42.397078 41.678844 42.427734 41.773672 42.427734 41.888672 C 42.427734 42.182672 42.307125 42.302047 42.203125 42.373047 C 41.821125 42.633047 40.928922 42.643578 39.919922 42.392578 C 39.601922 42.312578 38.668578 41.954219 38.017578 41.699219 C 37.695578 41.573219 37.34375 41.799859 37.34375 42.130859 L 37.34375 44.248047 C 37.34375 44.448047 37.475781 44.6245 37.675781 44.6875 C 38.386781 44.9115 39.420125 45.408203 41.078125 45.408203 C 42.513125 45.408203 43.661281 45.089938 44.488281 44.460938 C 45.352281 43.806937 45.789063 42.903344 45.789062 41.777344 C 45.789062 40.966344 45.554797 40.268219 45.091797 39.699219 C 44.638797 39.144219 43.861891 38.622562 42.712891 38.101562 C 41.735891 37.658563 41.371281 37.462 41.238281 37.375 C 41.078281 37.272 40.968344 37.170266 40.902344 37.072266 C 40.852344 36.998266 40.828125 36.904109 40.828125 36.787109 C 40.828125 36.595109 40.889344 36.45775 41.027344 36.34375 C 41.338344 36.08875 42.117219 36.11425 42.824219 36.28125 C 43.068219 36.33925 43.80025 36.597484 44.28125 36.771484 C 44.52825 36.860484 44.80425 36.747625 44.90625 36.515625 L 45.689453 34.728516 C 45.795453 34.487516 45.671016 34.212187 45.416016 34.117188 C 44.884016 33.920187 44.040875 33.612484 43.671875 33.521484 C 43.090875 33.379484 42.47575 33.306641 41.84375 33.306641 z"/></svg>